<?xml version="1.0" standalone="no"?>
<!DOCTYPE svg PUBLIC "-//W3C//DTD SVG 20010904//EN"
 "http://www.w3.org/TR/2001/REC-SVG-20010904/DTD/svg10.dtd">
<svg version="1.0" xmlns="http://www.w3.org/2000/svg"
 width="100.000000pt" height="100.000000pt" viewBox="0 0 100.000000 100.000000"
 preserveAspectRatio="xMidYMid meet">
<metadata>
Created by potrace 1.11, written by Peter Selinger 2001-2013
</metadata>
<g transform="translate(0.000000,100.000000) scale(0.100000,-0.100000)"
fill="#000000" stroke="none">
<path d="M571 809 c-42 -26 -79 -68 -113 -133 -27 -50 -29 -51 -84 -57 -59 -7
-107 -34 -112 -64 -6 -27 18 -64 38 -60 14 3 17 -2 13 -18 -5 -22 -5 -22 10
-2 13 17 17 18 33 5 17 -14 18 -13 6 2 -11 14 -10 19 9 32 22 15 22 15 1 13
-11 0 -18 -5 -15 -11 4 -5 1 -6 -7 -1 -10 6 -9 11 5 22 11 7 23 13 28 13 4 0
6 4 3 8 -7 12 12 38 21 29 4 -5 3 -11 -2 -15 -6 -4 -11 -18 -12 -32 -1 -14 -8
-56 -16 -93 -15 -67 -14 -227 2 -212 7 8 31 -17 26 -25 -3 -5 0 -12 6 -16 8
-4 9 -3 5 4 -4 7 -3 12 3 12 5 0 11 -6 14 -12 3 -10 7 -10 20 1 9 7 15 17 12
21 -3 5 3 16 12 26 16 16 16 16 -7 9 -21 -6 -23 -5 -12 6 14 15 17 33 4 25 -5
-3 -9 2 -9 10 0 9 6 13 14 10 8 -3 11 -1 8 5 -4 5 -2 16 4 23 8 9 7 13 -4 13
-8 0 -11 -5 -8 -10 3 -6 2 -7 -4 -4 -11 7 -11 43 0 53 4 4 2 12 -3 19 -7 8 -5
12 4 12 14 0 16 -14 3 -34 -4 -6 -2 -15 4 -19 7 -4 9 -3 5 4 -3 6 -2 13 3 16
5 4 8 18 5 32 -3 19 -1 24 8 18 7 -4 4 3 -7 16 -11 13 -14 20 -7 16 6 -4 12
-3 12 3 0 5 -6 12 -12 14 -9 4 -7 6 3 6 9 1 21 13 28 27 10 23 14 24 29 13 14
-11 14 -10 -1 8 -27 32 -14 44 31 29 l37 -13 3 -131 c2 -126 3 -132 24 -132
16 0 18 -3 9 -14 -10 -12 -8 -13 8 -9 12 3 21 10 21 16 0 6 3 8 6 5 3 -4 -2
-19 -11 -35 -11 -17 -11 -21 -2 -10 15 18 32 24 22 7 -4 -6 1 -7 11 -3 11 4
13 8 6 11 -7 2 -12 8 -12 13 0 4 7 5 17 2 11 -4 14 -3 9 6 -4 6 -9 27 -10 47
-3 27 0 32 10 24 10 -9 11 -6 7 11 -5 17 -3 20 8 14 8 -5 5 2 -5 14 -22 24
-28 59 -13 68 6 3 7 1 3 -5 -3 -6 -3 -13 2 -16 4 -2 8 6 8 19 0 13 -3 22 -7
19 -13 -7 -16 20 -6 43 5 12 15 19 21 16 6 -4 2 4 -8 16 -22 24 -28 59 -13 68
6 3 7 1 3 -5 -3 -6 -3 -13 2 -16 4 -2 8 6 8 19 0 13 -3 22 -7 19 -13 -7 -16
20 -6 43 5 12 15 19 21 16 6 -4 5 1 -3 10 -14 18 -26 23 -16 8 3 -5 1 -12 -4
-15 -5 -3 -7 12 -5 35 2 22 1 38 -3 36 -5 -3 -9 6 -10 20 0 14 -7 29 -15 34
-23 15 -72 10 -107 -12z m37 -125 c3 -99 2 -106 -15 -100 -10 4 -30 10 -46 13
-25 5 -26 7 -10 20 10 8 12 12 6 8 -9 -4 -13 1 -13 15 0 12 -4 19 -10 15 -5
-3 -7 -12 -4 -19 3 -8 1 -16 -4 -20 -5 -3 -7 5 -6 17 1 12 3 25 3 30 1 4 12 5
26 3 17 -3 23 -1 19 6 -5 8 -1 9 12 5 18 -7 18 -7 0 8 -26 20 -40 19 -31 -2 5
-14 3 -15 -5 -7 -9 9 -8 19 4 43 16 29 54 71 66 71 3 0 7 -48 8 -106z m-238
-115 c0 -11 -4 -18 -9 -14 -5 3 -12 1 -16 -5 -4 -6 -11 -8 -16 -4 -5 3 -7 10
-3 15 3 5 9 7 14 4 4 -3 10 2 14 10 8 21 16 19 16 -6z m135 2 c-3 -5 -1 -12 5
-16 12 -7 -17 -55 -34 -54 -7 0 -6 2 2 6 6 2 10 9 6 14 -3 5 -1 9 5 9 5 0 8 8
6 18 -2 17 2 32 11 32 3 0 3 -4 -1 -9z m215 -25 c0 -3 -4 -8 -10 -11 -5 -3
-10 -1 -10 4 0 6 5 11 10 11 6 0 10 -2 10 -4z m-240 -100 c0 -3 -4 -8 -10 -11
-5 -3 -10 -1 -10 4 0 6 5 11 10 11 6 0 10 -2 10 -4z m240 -60 c0 -3 -4 -8 -10
-11 -5 -3 -10 -1 -10 4 0 6 5 11 10 11 6 0 10 -2 10 -4z"/>
<path d="M577 743 c4 -9 0 -11 -11 -7 -9 3 -16 1 -16 -5 0 -6 -1 -14 -2 -18
-2 -4 10 -9 27 -10 22 -2 26 0 15 7 -9 6 -11 13 -5 18 15 11 16 29 0 29 -7 0
-11 -6 -8 -14z m-7 -23 c0 -5 -5 -10 -11 -10 -5 0 -7 5 -4 10 3 6 8 10 11 10
2 0 4 -4 4 -10z"/>
<path d="M715 660 c-3 -5 -1 -10 4 -10 6 0 11 5 11 10 0 6 -2 10 -4 10 -3 0
-8 -4 -11 -10z"/>
<path d="M538 558 c5 -5 16 -8 23 -6 8 3 3 7 -10 11 -17 4 -21 3 -13 -5z"/>
<path d="M586 537 c3 -10 9 -15 12 -12 3 3 0 11 -7 18 -10 9 -11 8 -5 -6z"/>
<path d="M715 500 c-3 -5 -1 -10 4 -10 6 0 11 5 11 10 0 6 -2 10 -4 10 -3 0
-8 -4 -11 -10z"/>
<path d="M330 464 c0 -8 5 -12 10 -9 6 4 8 11 5 16 -9 14 -15 11 -15 -7z"/>
<path d="M710 320 c0 -5 5 -10 10 -10 6 0 10 5 10 10 0 6 -4 10 -10 10 -5 0
-10 -4 -10 -10z"/>
<path d="M470 226 c0 -2 7 -7 16 -10 8 -3 12 -2 9 4 -6 10 -25 14 -25 6z"/>
<path d="M451 189 c-13 -10 -18 -19 -13 -19 6 0 14 5 17 11 5 6 11 4 19 -7 12
-15 13 -15 11 4 -2 31 -7 33 -34 11z"/>
</g>
</svg>
